<svg width="22" height="20" viewBox="0 0 22 20" fill="none" xmlns="http://www.w3.org/2000/svg">
<path d="M8.49452 16.8539L13.1612 19.4562C13.396 19.5834 13.5916 19.6813 13.8362 19.74V3.48981L9.29675 0.750473C9.00325 0.574372 8.72932 0.447189 8.49452 0.388489V16.8539ZM0.931984 18.1648C0.931984 19.016 1.47007 19.4856 2.25274 19.4856C2.53645 19.4856 2.82995 19.3975 3.16259 19.2214L7.05636 17.1082V0.496106C6.84113 0.584156 6.58676 0.691773 6.32261 0.848306L1.90054 3.36263C1.23527 3.7344 0.931984 4.2627 0.931984 5.00623V18.1648ZM15.2646 19.691C15.382 19.6617 15.4994 19.6128 15.607 19.5345L20.5574 16.7365C21.2422 16.3549 21.5553 15.8364 21.5553 15.0929V2.00274C21.5553 1.11246 21.0074 0.672206 20.1758 0.672206C19.8726 0.672206 19.5497 0.760256 19.2073 0.94614L15.2646 3.13761V19.691Z" fill="black"/>
</svg>
