<svg width="24" height="23" viewBox="0 0 24 23" fill="none" xmlns="http://www.w3.org/2000/svg">
<path d="M12.0174 0.441223C5.87297 0.441223 0.886154 5.42804 0.886154 11.5725C0.886154 17.717 5.87297 22.7038 12.0174 22.7038C18.1619 22.7038 23.1487 17.717 23.1487 11.5725C23.1487 5.42804 18.1619 0.441223 12.0174 0.441223ZM3.11241 11.5725C3.11241 6.65248 7.09741 2.66748 12.0174 2.66748C14.0767 2.66748 15.969 3.36875 17.4718 4.54867L4.9936 17.0268C3.81368 15.5241 3.11241 13.6318 3.11241 11.5725ZM12.0174 20.4775C9.95815 20.4775 8.06583 19.7763 6.56311 18.5963L19.0413 6.11818C20.2212 7.6209 20.9225 9.51322 20.9225 11.5725C20.9225 16.4925 16.9375 20.4775 12.0174 20.4775Z" fill="black"/>
</svg>
