<svg width="22" height="23" viewBox="0 0 22 23" fill="none" xmlns="http://www.w3.org/2000/svg">
<path d="M10.4608 0.152069L4.33861 10.1702H16.583L10.4608 0.152069ZM10.4608 4.42648L12.6092 7.94397H8.30135L10.4608 4.42648ZM16.583 12.3965C13.8113 12.3965 11.5739 14.6339 11.5739 17.4056C11.5739 20.1772 13.8113 22.4146 16.583 22.4146C19.3547 22.4146 21.5921 20.1772 21.5921 17.4056C21.5921 14.6339 19.3547 12.3965 16.583 12.3965ZM16.583 20.1884C15.0469 20.1884 13.8002 18.9417 13.8002 17.4056C13.8002 15.8694 15.0469 14.6227 16.583 14.6227C18.1191 14.6227 19.3658 15.8694 19.3658 17.4056C19.3658 18.9417 18.1191 20.1884 16.583 20.1884ZM0.442665 21.8581H9.34769V12.953H0.442665V21.8581ZM2.66892 15.1793H7.12143V19.6318H2.66892V15.1793Z" fill="black"/>
</svg>
