<svg width="15" height="14" viewBox="0 0 15 14" fill="none" xmlns="http://www.w3.org/2000/svg">
<path d="M7.58815 7.11451L12.9731 4.17725C12.8019 3.61376 12.4545 3.12001 11.982 2.76848C11.5094 2.41694 10.9367 2.22613 10.3477 2.22406H4.82856C4.23962 2.22613 3.66686 2.41694 3.19434 2.76848C2.72183 3.12001 2.37445 3.61376 2.20319 4.17725L7.58815 7.11451Z" fill="#1B8271"/>
<path d="M7.85259 8.22773C7.77149 8.27194 7.6806 8.29511 7.58822 8.29511C7.49585 8.29511 7.40496 8.27194 7.32386 8.22773L2.06903 5.36145V9.39896C2.06989 10.1306 2.36091 10.832 2.87825 11.3493C3.39559 11.8667 4.097 12.1577 4.82863 12.1586H10.3478C11.0794 12.1577 11.7809 11.8667 12.2982 11.3493C12.8155 10.832 13.1066 10.1306 13.1074 9.39896V5.36145L7.85259 8.22773Z" fill="#1B8271"/>
</svg>
