<svg width="30" height="29" viewBox="0 0 30 29" fill="none" xmlns="http://www.w3.org/2000/svg">
<path d="M15.1052 0.0861816C7.2507 0.0861816 0.890259 6.46085 0.890259 14.3153C0.890259 22.1698 7.2507 28.5445 15.1052 28.5445C22.9739 28.5445 29.3486 22.1698 29.3486 14.3153C29.3486 6.46085 22.9739 0.0861816 15.1052 0.0861816ZM15.1194 25.6987C8.83013 25.6987 3.73609 20.6046 3.73609 14.3153C3.73609 8.02606 8.83013 2.93202 15.1194 2.93202C21.4087 2.93202 26.5028 8.02606 26.5028 14.3153C26.5028 20.6046 21.4087 25.6987 15.1194 25.6987ZM20.0996 12.8924C21.2807 12.8924 22.234 11.9391 22.234 10.7581C22.234 9.57704 21.2807 8.62368 20.0996 8.62368C18.9186 8.62368 17.9653 9.57704 17.9653 10.7581C17.9653 11.9391 18.9186 12.8924 20.0996 12.8924ZM10.1392 12.8924C11.3202 12.8924 12.2736 11.9391 12.2736 10.7581C12.2736 9.57704 11.3202 8.62368 10.1392 8.62368C8.9582 8.62368 8.00484 9.57704 8.00484 10.7581C8.00484 11.9391 8.9582 12.8924 10.1392 12.8924ZM15.1194 22.1414C18.4348 22.1414 21.2522 20.0639 22.3905 17.1612H7.84832C8.98666 20.0639 11.804 22.1414 15.1194 22.1414Z" fill="black"/>
</svg>
