<svg width="30" height="29" viewBox="0 0 30 29" fill="none" xmlns="http://www.w3.org/2000/svg">
<path d="M15.1344 0.0861816C7.27993 0.0861816 0.919495 6.46085 0.919495 14.3153C0.919495 22.1698 7.27993 28.5445 15.1344 28.5445C23.0032 28.5445 29.3778 22.1698 29.3778 14.3153C29.3778 6.46085 23.0032 0.0861816 15.1344 0.0861816ZM10.1685 8.62368C11.3495 8.62368 12.3028 9.57704 12.3028 10.7581C12.3028 11.9391 11.3495 12.8924 10.1685 12.8924C8.98743 12.8924 8.03408 11.9391 8.03408 10.7581C8.03408 9.57704 8.98743 8.62368 10.1685 8.62368ZM21.9075 18.2284C20.5557 20.562 18.0372 22.1414 15.1487 22.1414C12.2601 22.1414 9.74158 20.562 8.38981 18.2284C8.11945 17.7588 8.47518 17.1612 9.01589 17.1612H21.2814C21.8364 17.1612 22.1779 17.7588 21.9075 18.2284ZM20.1289 12.8924C18.9479 12.8924 17.9945 11.9391 17.9945 10.7581C17.9945 9.57704 18.9479 8.62368 20.1289 8.62368C21.3099 8.62368 22.2632 9.57704 22.2632 10.7581C22.2632 11.9391 21.3099 12.8924 20.1289 12.8924Z" fill="white"/>
</svg>
