<svg width="24" height="19" viewBox="0 0 24 19" fill="none" xmlns="http://www.w3.org/2000/svg">
<path d="M18.6962 0.38855H5.33861C2.8786 0.38855 0.886101 2.38105 0.886101 4.84106V13.7461C0.886101 16.2061 2.8786 18.1986 5.33861 18.1986H18.6962C21.1562 18.1986 23.1487 16.2061 23.1487 13.7461V4.84106C23.1487 2.38105 21.1562 0.38855 18.6962 0.38855ZM16.6257 11.2638C16.3586 11.4864 15.9913 11.5755 15.6462 11.4864L3.27933 8.45873C3.61326 7.64615 4.40359 7.06732 5.33861 7.06732H18.6962C19.4419 7.06732 20.0987 7.44578 20.5105 8.00235L16.6257 11.2638ZM5.33861 2.61481H18.6962C19.9206 2.61481 20.9224 3.61662 20.9224 4.84106V5.45328C20.2657 5.07482 19.5087 4.84106 18.6962 4.84106H5.33861C4.52603 4.84106 3.7691 5.07482 3.11236 5.45328V4.84106C3.11236 3.61662 4.11417 2.61481 5.33861 2.61481Z" fill="black"/>
</svg>
