<svg width="15" height="14" viewBox="0 0 15 14" fill="none" xmlns="http://www.w3.org/2000/svg">
<g opacity="0.3">
<path fill-rule="evenodd" clip-rule="evenodd" d="M11.0569 0.90509C11.595 0.90506 12.1128 1.11067 12.5044 1.47985C12.8959 1.84903 13.1316 2.35387 13.1631 2.89108L13.1667 3.01486V6.07402L13.5844 5.88836C14.0162 5.69637 14.5141 5.99385 14.5689 6.44956L14.5732 6.53113V12.1572C14.5733 12.512 14.4393 12.8538 14.198 13.114C13.9567 13.3742 13.626 13.5336 13.2721 13.5602L13.1667 13.5637H1.91457C1.55972 13.5638 1.21795 13.4298 0.957755 13.1885C0.697563 12.9472 0.538186 12.6165 0.511573 12.2627L0.508057 12.1572V6.53113C0.508057 6.05855 0.982754 5.7245 1.42018 5.85953L1.49754 5.88836L1.91457 6.07402V3.01486C1.91454 2.47672 2.12015 1.95891 2.48933 1.56737C2.85851 1.17584 3.36335 0.940178 3.90056 0.908607L4.02433 0.90509H11.0569ZM13.1667 7.61344L8.11166 9.85964C7.93187 9.93951 7.73734 9.98078 7.54061 9.98078C7.34389 9.98078 7.14935 9.93951 6.96957 9.85964L1.91457 7.61415V12.1572H13.1667V7.61344ZM11.0569 2.3116H4.02433C3.83782 2.3116 3.65894 2.38569 3.52706 2.51758C3.39517 2.64947 3.32108 2.82834 3.32108 3.01486V6.69921L7.54061 8.5748L11.7601 6.69921V3.01486C11.7601 2.82834 11.6861 2.64947 11.5542 2.51758C11.4223 2.38569 11.2434 2.3116 11.0569 2.3116ZM7.54061 4.42137C7.71986 4.42157 7.89226 4.4902 8.0226 4.61325C8.15294 4.7363 8.23137 4.90447 8.24188 5.08341C8.25238 5.26235 8.19416 5.43854 8.07912 5.576C7.96407 5.71345 7.80088 5.80179 7.62289 5.82296L7.54061 5.82788H6.1341C5.95485 5.82768 5.78245 5.75905 5.65211 5.636C5.52177 5.51295 5.44334 5.34478 5.43283 5.16584C5.42233 4.9869 5.48055 4.8107 5.59559 4.67325C5.71064 4.5358 5.87383 4.44746 6.05182 4.42629L6.1341 4.42137H7.54061Z" fill="black"/>
</g>
</svg>
