<svg width="130" height="130" viewBox="0 0 130 130" fill="none" xmlns="http://www.w3.org/2000/svg">
<path fill-rule="evenodd" clip-rule="evenodd" d="M37.9166 119.167C52.8742 119.167 65 107.041 65 92.0834V119.167H92.0833C107.041 119.167 119.167 107.041 119.167 92.0834C119.167 77.1258 107.041 65 92.0833 65C107.041 65 119.167 52.8743 119.167 37.9167C119.167 30.4896 116.177 23.7608 111.336 18.8679L111.234 18.7658L111.144 18.6764C106.25 13.828 99.5166 10.8334 92.0833 10.8334C84.7007 10.8334 78.0078 13.7873 73.1223 18.5778C73.0589 18.6401 72.9955 18.703 72.9324 18.7658C72.8731 18.8251 72.8141 18.8847 72.7553 18.9445C67.9586 23.8309 65 30.5284 65 37.9167C65 22.9591 52.8742 10.8334 37.9166 10.8334C22.9589 10.8334 10.8333 22.9591 10.8333 37.9167V65H37.9166C22.9589 65 10.8333 77.1258 10.8333 92.0834C10.8333 107.041 22.9589 119.167 37.9166 119.167ZM34.0001 96C34.0001 84.0338 46.9663 82 35.0001 82L50.0001 83.5C61.9663 83.5 34.0001 107.966 34.0001 96ZM113.75 37.9167C113.75 49.8829 104.05 59.5834 92.0833 59.5834C80.1171 59.5834 70.4166 49.8829 70.4166 37.9167H113.75ZM16.25 59.5834V37.9167C16.25 25.9505 25.9505 16.25 37.9166 16.25C49.8829 16.25 59.5833 25.9505 59.5833 37.9167V59.5834H16.25ZM70.4166 70.4167V113.75H92.0833C104.05 113.75 113.75 104.05 113.75 92.0834C113.75 80.1171 104.05 70.4167 92.0833 70.4167H70.4166Z" fill="#1B8271"/>
<ellipse cx="43" cy="91.5" rx="16" ry="14.5" fill="#1B8271"/>
<path d="M116.191 44.5C116.191 52.5081 91.0276 64.5 82.191 64.5C73.3545 64.5 63.9999 55.5081 63.9999 47.5C63.9999 39.4919 81.1633 19.5 89.9999 19.5C98.8364 19.5 116.191 36.4919 116.191 44.5Z" fill="#1B8271"/>
</svg>
