<svg width="21" height="27" viewBox="0 0 21 27" fill="none" xmlns="http://www.w3.org/2000/svg">
<path d="M17.5965 8.9816H16.3419V6.47232C16.3419 3.0095 13.5315 0.199097 10.0686 0.199097C6.60583 0.199097 3.79543 3.0095 3.79543 6.47232V8.9816H2.54078C1.16067 8.9816 0.0314941 10.1108 0.0314941 11.4909V24.0373C0.0314941 25.4174 1.16067 26.5466 2.54078 26.5466H17.5965C18.9766 26.5466 20.1058 25.4174 20.1058 24.0373V11.4909C20.1058 10.1108 18.9766 8.9816 17.5965 8.9816ZM10.0686 20.2734C8.68854 20.2734 7.55936 19.1442 7.55936 17.7641C7.55936 16.384 8.68854 15.2548 10.0686 15.2548C11.4488 15.2548 12.5779 16.384 12.5779 17.7641C12.5779 19.1442 11.4488 20.2734 10.0686 20.2734ZM13.958 8.9816H6.17925V6.47232C6.17925 4.32687 7.9232 2.58292 10.0686 2.58292C12.2141 2.58292 13.958 4.32687 13.958 6.47232V8.9816Z" fill="black" fill-opacity="0.5"/>
</svg>
