<svg width="26" height="25" viewBox="0 0 26 25" fill="none" xmlns="http://www.w3.org/2000/svg">
<path fill-rule="evenodd" clip-rule="evenodd" d="M10.8751 0.153076C16.5138 0.153076 21.1015 4.74087 21.1015 10.3796C21.1015 12.6321 20.3606 14.7099 19.1219 16.4015L24.7092 21.9888C25.3235 22.6031 25.3235 23.5991 24.7092 24.2135C24.0948 24.8278 23.0988 24.8278 22.4844 24.2135L16.8972 18.6263C15.2056 19.865 13.1276 20.606 10.8751 20.606C5.23646 20.606 0.648682 16.0182 0.648682 10.3796C0.648682 4.74087 5.23641 0.153076 10.8751 0.153076ZM3.79455 10.3308C3.79455 14.2349 6.97032 17.4107 10.8744 17.4107C14.7784 17.4107 17.9542 14.2349 17.9542 10.3308C17.9542 6.42674 14.7785 3.25096 10.8744 3.25096C6.97032 3.25096 3.79455 6.42674 3.79455 10.3308Z" fill="#939496"/>
</svg>
