<svg width="26" height="19" viewBox="0 0 26 19" fill="none" xmlns="http://www.w3.org/2000/svg">
<path fill-rule="evenodd" clip-rule="evenodd" d="M18.2157 10.8837C19.7407 11.9189 20.8093 13.3214 20.8093 15.1915V18.5309H25.2618V15.1915C25.2618 12.7649 21.2879 11.3289 18.2157 10.8837Z" fill="#1B8271"/>
<path d="M9.678 9.62585C12.1371 9.62585 14.1305 7.63239 14.1305 5.17334C14.1305 2.71428 12.1371 0.720825 9.678 0.720825C7.21894 0.720825 5.22548 2.71428 5.22548 5.17334C5.22548 7.63239 7.21894 9.62585 9.678 9.62585Z" fill="#1B8271"/>
<path fill-rule="evenodd" clip-rule="evenodd" d="M16.3568 9.62585C18.8168 9.62585 20.8093 7.63335 20.8093 5.17334C20.8093 2.71332 18.8168 0.720825 16.3568 0.720825C15.8336 0.720825 15.3438 0.832138 14.8763 0.987976C15.8002 2.1345 16.3568 3.5927 16.3568 5.17334C16.3568 6.75398 15.8002 8.21218 14.8763 9.3587C15.3438 9.51454 15.8336 9.62585 16.3568 9.62585Z" fill="#1B8271"/>
<path fill-rule="evenodd" clip-rule="evenodd" d="M9.678 10.739C6.70595 10.739 0.772972 12.2306 0.772972 15.1915V18.5309H18.583V15.1915C18.583 12.2306 12.65 10.739 9.678 10.739Z" fill="#1B8271"/>
</svg>
